<svg width="148" height="46" viewBox="0 0 148 46" fill="none" xmlns="http://www.w3.org/2000/svg">
<path d="M131 22.9019H146.804" stroke="#C29455" stroke-width="2.25773" stroke-linecap="round" stroke-linejoin="round"/>
<path d="M138.902 15L146.804 22.9021L138.902 30.8041" stroke="#C29455" stroke-width="2.25773" stroke-linecap="round" stroke-linejoin="round"/>
<path d="M12.6 26.34C12.6 27.0733 12.4133 27.7133 12.04 28.26C11.6667 28.8067 11.16 29.2333 10.52 29.54C9.89333 29.8467 9.2 30 8.44 30H1.7V15.8H8.76C9.42667 15.8 10 15.98 10.48 16.34C10.9733 16.6867 11.3467 17.14 11.6 17.7C11.8667 18.2467 12 18.82 12 19.42C12 20.1133 11.82 20.7667 11.46 21.38C11.1133 21.98 10.6133 22.4267 9.96 22.72C10.7733 22.96 11.4133 23.4067 11.88 24.06C12.36 24.7 12.6 25.46 12.6 26.34ZM10.78 26.02C10.78 25.58 10.68 25.1733 10.48 24.8C10.2933 24.4267 10.0333 24.1267 9.7 23.9C9.38 23.6733 9.00667 23.56 8.58 23.56H3.5V28.44H8.44C8.88 28.44 9.27333 28.3267 9.62 28.1C9.98 27.8733 10.26 27.58 10.46 27.22C10.6733 26.8467 10.78 26.4467 10.78 26.02ZM3.5 17.36V22.1H8.02C8.44667 22.1 8.82 21.9933 9.14 21.78C9.47333 21.5667 9.73333 21.28 9.92 20.92C10.12 20.56 10.22 20.1667 10.22 19.74C10.22 19.2867 10.1267 18.8867 9.94 18.54C9.76667 18.18 9.52 17.8933 9.2 17.68C8.89333 17.4667 8.54 17.36 8.14 17.36H3.5ZM19.358 30.2C18.5713 30.2 17.8513 30.06 17.198 29.78C16.558 29.4867 15.998 29.0867 15.518 28.58C15.0513 28.0733 14.6846 27.4933 14.418 26.84C14.1646 26.1867 14.038 25.4933 14.038 24.76C14.038 23.7733 14.258 22.8733 14.698 22.06C15.138 21.2467 15.758 20.6 16.558 20.12C17.358 19.6267 18.2846 19.38 19.338 19.38C20.3646 19.38 21.258 19.6133 22.018 20.08C22.7913 20.5333 23.3646 21.1467 23.738 21.92L22.018 22.46C21.7513 21.9667 21.378 21.5867 20.898 21.32C20.418 21.04 19.8846 20.9 19.298 20.9C18.658 20.9 18.0713 21.0667 17.538 21.4C17.018 21.7333 16.6046 22.1933 16.298 22.78C15.9913 23.3533 15.838 24.0133 15.838 24.76C15.838 25.4933 15.9913 26.16 16.298 26.76C16.618 27.3467 17.038 27.8133 17.558 28.16C18.0913 28.5067 18.678 28.68 19.318 28.68C19.7313 28.68 20.1246 28.6067 20.498 28.46C20.8846 28.3133 21.218 28.12 21.498 27.88C21.7913 27.6267 21.9913 27.3533 22.098 27.06L23.818 27.58C23.6046 28.0867 23.278 28.54 22.838 28.94C22.4113 29.3267 21.898 29.6333 21.298 29.86C20.7113 30.0867 20.0646 30.2 19.358 30.2ZM30.2345 30.2C29.4479 30.2 28.7279 30.06 28.0745 29.78C27.4345 29.4867 26.8745 29.0933 26.3945 28.6C25.9279 28.0933 25.5612 27.5133 25.2945 26.86C25.0412 26.2067 24.9145 25.5133 24.9145 24.78C24.9145 23.7933 25.1412 22.8933 25.5945 22.08C26.0479 21.2667 26.6745 20.6133 27.4745 20.12C28.2879 19.6267 29.2145 19.38 30.2545 19.38C31.3079 19.38 32.2212 19.6333 32.9945 20.14C33.7812 20.6333 34.3879 21.2867 34.8145 22.1C35.2545 22.9 35.4745 23.7667 35.4745 24.7C35.4745 24.8333 35.4679 24.9667 35.4545 25.1C35.4545 25.22 35.4479 25.3133 35.4345 25.38H26.7745C26.8279 26.06 27.0145 26.6667 27.3345 27.2C27.6679 27.72 28.0945 28.1333 28.6145 28.44C29.1345 28.7333 29.6945 28.88 30.2945 28.88C30.9345 28.88 31.5345 28.72 32.0945 28.4C32.6679 28.08 33.0612 27.66 33.2745 27.14L34.7945 27.56C34.5679 28.0667 34.2279 28.52 33.7745 28.92C33.3345 29.32 32.8079 29.6333 32.1945 29.86C31.5945 30.0867 30.9412 30.2 30.2345 30.2ZM26.7145 24.16H33.8345C33.7812 23.48 33.5879 22.88 33.2545 22.36C32.9212 21.84 32.4945 21.4333 31.9745 21.14C31.4545 20.8467 30.8812 20.7 30.2545 20.7C29.6412 20.7 29.0745 20.8467 28.5545 21.14C28.0345 21.4333 27.6079 21.84 27.2745 22.36C26.9545 22.88 26.7679 23.48 26.7145 24.16ZM42.2695 30V19.56H44.0295V23.88H49.4695V19.56H51.2295V30H49.4695V25.44H44.0295V30H42.2695ZM58.5269 30.2C57.7402 30.2 57.0269 30.06 56.3869 29.78C55.7469 29.4867 55.1935 29.0933 54.7269 28.6C54.2602 28.0933 53.9002 27.5133 53.6469 26.86C53.3935 26.2067 53.2669 25.52 53.2669 24.8C53.2669 24.0667 53.3935 23.3733 53.6469 22.72C53.9002 22.0667 54.2602 21.4933 54.7269 21C55.1935 20.4933 55.7469 20.1 56.3869 19.82C57.0402 19.5267 57.7535 19.38 58.5269 19.38C59.3135 19.38 60.0269 19.5267 60.6669 19.82C61.3069 20.1 61.8602 20.4933 62.3269 21C62.8069 21.4933 63.1735 22.0667 63.4269 22.72C63.6802 23.3733 63.8069 24.0667 63.8069 24.8C63.8069 25.52 63.6802 26.2067 63.4269 26.86C63.1735 27.5133 62.8135 28.0933 62.3469 28.6C61.8802 29.0933 61.3202 29.4867 60.6669 29.78C60.0269 30.06 59.3135 30.2 58.5269 30.2ZM55.0669 24.82C55.0669 25.54 55.2202 26.1933 55.5269 26.78C55.8469 27.3667 56.2669 27.8333 56.7869 28.18C57.3069 28.5133 57.8869 28.68 58.5269 28.68C59.1669 28.68 59.7469 28.5067 60.2669 28.16C60.8002 27.8133 61.2202 27.3467 61.5269 26.76C61.8469 26.16 62.0069 25.5 62.0069 24.78C62.0069 24.06 61.8469 23.4067 61.5269 22.82C61.2202 22.2333 60.8002 21.7667 60.2669 21.42C59.7469 21.0733 59.1669 20.9 58.5269 20.9C57.8869 20.9 57.3069 21.08 56.7869 21.44C56.2669 21.7867 55.8469 22.2533 55.5269 22.84C55.2202 23.4267 55.0669 24.0867 55.0669 24.82ZM65.8195 30V19.56H71.2195C71.8462 19.56 72.3662 19.6867 72.7795 19.94C73.1929 20.18 73.4995 20.4933 73.6995 20.88C73.9129 21.2667 74.0195 21.68 74.0195 22.12C74.0195 22.68 73.8862 23.1867 73.6195 23.64C73.3529 24.08 72.9662 24.4133 72.4595 24.64C73.0595 24.8133 73.5462 25.1267 73.9195 25.58C74.2929 26.02 74.4795 26.5667 74.4795 27.22C74.4795 27.8067 74.3395 28.3067 74.0595 28.72C73.7795 29.1333 73.3862 29.4533 72.8795 29.68C72.3729 29.8933 71.7862 30 71.1195 30H65.8195ZM67.4995 28.76H71.0795C71.3995 28.76 71.6862 28.68 71.9395 28.52C72.2062 28.36 72.4129 28.1467 72.5595 27.88C72.7062 27.6133 72.7795 27.3333 72.7795 27.04C72.7795 26.72 72.7062 26.4333 72.5595 26.18C72.4262 25.9133 72.2329 25.7067 71.9795 25.56C71.7395 25.4 71.4595 25.32 71.1395 25.32H67.4995V28.76ZM67.4995 24.16H70.7595C71.0795 24.16 71.3595 24.08 71.5995 23.92C71.8395 23.7467 72.0262 23.5267 72.1595 23.26C72.2929 22.9933 72.3595 22.7133 72.3595 22.42C72.3595 21.98 72.2129 21.6 71.9195 21.28C71.6395 20.96 71.2729 20.8 70.8195 20.8H67.4995V24.16ZM81.1784 30.2C80.3918 30.2 79.6784 30.06 79.0384 29.78C78.3984 29.4867 77.8451 29.0933 77.3784 28.6C76.9118 28.0933 76.5518 27.5133 76.2984 26.86C76.0451 26.2067 75.9184 25.52 75.9184 24.8C75.9184 24.0667 76.0451 23.3733 76.2984 22.72C76.5518 22.0667 76.9118 21.4933 77.3784 21C77.8451 20.4933 78.3984 20.1 79.0384 19.82C79.6918 19.5267 80.4051 19.38 81.1784 19.38C81.9651 19.38 82.6784 19.5267 83.3184 19.82C83.9584 20.1 84.5118 20.4933 84.9784 21C85.4584 21.4933 85.8251 22.0667 86.0784 22.72C86.3318 23.3733 86.4584 24.0667 86.4584 24.8C86.4584 25.52 86.3318 26.2067 86.0784 26.86C85.8251 27.5133 85.4651 28.0933 84.9984 28.6C84.5318 29.0933 83.9718 29.4867 83.3184 29.78C82.6784 30.06 81.9651 30.2 81.1784 30.2ZM77.7184 24.82C77.7184 25.54 77.8718 26.1933 78.1784 26.78C78.4984 27.3667 78.9184 27.8333 79.4384 28.18C79.9584 28.5133 80.5384 28.68 81.1784 28.68C81.8184 28.68 82.3984 28.5067 82.9184 28.16C83.4518 27.8133 83.8718 27.3467 84.1784 26.76C84.4984 26.16 84.6584 25.5 84.6584 24.78C84.6584 24.06 84.4984 23.4067 84.1784 22.82C83.8718 22.2333 83.4518 21.7667 82.9184 21.42C82.3984 21.0733 81.8184 20.9 81.1784 20.9C80.5384 20.9 79.9584 21.08 79.4384 21.44C78.9184 21.7867 78.4984 22.2533 78.1784 22.84C77.8718 23.4267 77.7184 24.0867 77.7184 24.82ZM93.1111 30.2C92.3244 30.2 91.6044 30.06 90.9511 29.78C90.3111 29.4867 89.7511 29.0867 89.2711 28.58C88.8044 28.0733 88.4378 27.4933 88.1711 26.84C87.9178 26.1867 87.7911 25.4933 87.7911 24.76C87.7911 23.7733 88.0111 22.8733 88.4511 22.06C88.8911 21.2467 89.5111 20.6 90.3111 20.12C91.1111 19.6267 92.0378 19.38 93.0911 19.38C94.1178 19.38 95.0111 19.6133 95.7711 20.08C96.5444 20.5333 97.1178 21.1467 97.4911 21.92L95.7711 22.46C95.5044 21.9667 95.1311 21.5867 94.6511 21.32C94.1711 21.04 93.6378 20.9 93.0511 20.9C92.4111 20.9 91.8244 21.0667 91.2911 21.4C90.7711 21.7333 90.3578 22.1933 90.0511 22.78C89.7444 23.3533 89.5911 24.0133 89.5911 24.76C89.5911 25.4933 89.7444 26.16 90.0511 26.76C90.3711 27.3467 90.7911 27.8133 91.3111 28.16C91.8444 28.5067 92.4311 28.68 93.0711 28.68C93.4844 28.68 93.8778 28.6067 94.2511 28.46C94.6378 28.3133 94.9711 28.12 95.2511 27.88C95.5444 27.6267 95.7444 27.3533 95.8511 27.06L97.5711 27.58C97.3578 28.0867 97.0311 28.54 96.5911 28.94C96.1644 29.3267 95.6511 29.6333 95.0511 29.86C94.4644 30.0867 93.8178 30.2 93.1111 30.2ZM102.005 30V21.12H98.4053V19.56H107.365V21.12H103.765V30H102.005ZM109.013 30V19.58H110.773V27.64L116.613 19.56H118.213V30H116.453V22.1L110.693 30H109.013Z" fill="#C29455"/>
</svg>
