<svg width="88" height="90" viewBox="0 0 88 90" fill="none" xmlns="http://www.w3.org/2000/svg">
<g clip-path="url(#clip0_26_24)">
<path d="M78.4878 36.465L43.4878 1.465C42.5115 0.48875 41.2315 0 39.9528 0C38.674 0 37.394 0.48875 36.4178 1.465L1.41776 36.465C-0.534742 38.4225 -0.437242 41.485 1.51526 43.4375C3.47276 45.4 6.33401 45.6888 8.29276 43.73L10.0003 42.0213V75C10.0003 77.7637 12.2365 80 15.0003 80H65.0003C67.764 80 70.0003 77.7637 70.0003 75V42.1188L71.494 43.6125C73.4465 45.565 76.4303 45.39 78.389 43.4362C80.3428 41.485 80.4453 38.4175 78.4878 36.465ZM60.0015 70H45.0015V55H35.0015V70H20.0003V32.0213L39.9528 12.075L60.0015 32.1188V70Z" fill="#C29455" stroke="#C29455" stroke-width="0.00064"/>
<path d="M33.5877 33.054C34.662 33.054 35.7376 33.0683 36.8119 33.054C37.7671 33.0413 37.6492 31.9624 37.8683 31.1606C38.4725 28.9503 39.415 26.8002 39.7342 24.5201C39.897 23.3573 40.0348 22.2084 40.0018 21.0353C39.9702 19.9146 39.4584 20.5422 38.9522 21.1313C38.3143 21.8736 37.9002 22.7654 37.4155 23.6078C36.4776 25.238 35.4465 26.6501 34.0816 27.9639C32.7928 29.2044 31.4771 30.2304 30.7476 31.8947C30.1512 33.2551 29.7028 34.696 29.4305 36.1547C29.3225 36.7332 29.1062 38.9632 28.9228 37.17C28.8866 36.8155 28.7894 34.6286 28.525 36.0656C28.0022 38.9066 27.4839 41.7491 26.9746 44.5926C26.6864 46.2017 26.3023 47.8702 26.3023 49.5181C26.3023 50.8638 26.5493 52.183 26.5493 53.538C26.5493 54.5762 26.5534 55.6144 26.5493 56.6525C26.5452 57.6985 26.7036 58.9781 26.3435 59.9865C26.1125 60.6331 25.8444 61.2822 25.5889 61.921C25.5468 62.0261 25.201 62.403 25.2596 62.4835C25.4374 62.7279 26.4822 62.562 26.7551 62.5658C27.1554 62.5714 27.4213 63.2604 27.7155 63.1764C27.8547 63.1366 27.8821 61.3769 27.9213 61.2144C28.2442 59.8768 29.3398 59.0212 30.1714 57.9833C30.9214 57.0471 31.4598 56.0373 31.8727 54.91C32.2392 53.9091 32.3618 52.7062 32.9977 51.823C33.8364 50.6582 35.2437 49.8811 36.4414 49.1476C37.1408 48.7193 37.8774 48.1632 38.7258 48.1255C39.2072 48.1041 39.6915 48.1186 40.1733 48.1186C41.4639 48.1186 42.875 48.4475 44.0423 47.7413C45.3449 46.9533 46.6104 45.7792 47.3077 44.4142C48.752 41.5871 49.3502 38.7255 49.3863 35.5648C49.4042 33.9963 49.3932 32.4273 49.3932 30.8588C49.3932 30.8126 49.3323 30.2222 49.4343 30.1797C50.3926 29.7804 51.6403 31.8877 51.9039 32.3817C53.4487 35.2767 53.8618 38.8276 54.6068 41.9858C55.3333 45.0656 55.8704 48.0148 55.8141 51.1782C55.7938 52.3215 55.7315 53.209 54.9841 54.0937C53.9809 55.2811 53.4555 56.7197 52.7408 58.0794C51.8538 59.7669 49.8259 60.0895 48.81 61.722C48.6274 62.0156 48.3748 62.3421 48.3093 62.6893C48.1504 63.5311 49.342 63.3867 49.8871 63.4096C50.8203 63.4488 51.9236 63.2537 52.8094 63.5262C53.478 63.732 54.0188 62.9492 54.2089 62.4424" stroke="#C29455" stroke-width="20" stroke-linecap="round"/>
</g>
<path d="M61.9204 67.4304L79.3067 61.1829V71.5701C78.2736 70.9759 77.0451 70.6313 75.7272 70.6313C72.0557 70.6313 69.0796 73.305 69.0796 76.6031C69.0796 79.9012 72.0557 82.575 75.7272 82.575C79.3986 82.575 82.375 79.9012 82.375 76.6031V59.0482C82.375 56.9482 82.375 55.1871 82.2106 53.7839C82.1873 53.5855 82.1597 53.3884 82.1294 53.2044C81.9709 52.2458 81.691 51.3515 81.1506 50.6047C80.8802 50.2313 80.545 49.8948 80.1273 49.6055C80.0489 49.5513 79.9675 49.4987 79.8833 49.4479L79.8664 49.4377C78.4199 48.5729 76.7937 48.6347 75.1184 49.0182C73.4982 49.3891 71.4895 50.1444 69.0265 51.0706L64.7431 52.6811C63.5886 53.1151 62.6104 53.4829 61.8426 53.8638C61.0258 54.269 60.3222 54.747 59.7945 55.4593C59.2668 56.1716 59.0477 56.9392 58.9469 57.7726C58.8522 58.5558 58.8522 59.5084 58.8523 60.6327V75.2451C57.819 74.6509 56.5907 74.3062 55.2727 74.3062C51.6013 74.3062 48.625 76.98 48.625 80.2781C48.625 83.5763 51.6013 86.25 55.2727 86.25C58.9442 86.25 61.9204 83.5763 61.9204 80.2781V67.4304Z" fill="#214439"/>
<path d="M51.2848 37.5487C49.4895 37.3393 47.786 38.3921 47.1704 40.0915C47.0317 40.4745 46.983 40.8886 46.9602 41.3226C46.943 41.65 46.9388 42.0403 46.9379 42.5L46.9375 43.1446C46.9375 43.1514 46.9375 43.1582 46.9375 43.165V54.5925C45.7338 53.4627 44.1144 52.7708 42.3334 52.7708C38.6169 52.7708 35.6042 55.7835 35.6042 59.5C35.6042 63.2165 38.6169 66.2292 42.3334 66.2292C46.0498 66.2292 49.0625 63.2165 49.0625 59.5V47.0483C49.211 47.1275 49.3718 47.2078 49.548 47.2958L53.3836 49.2136C53.9762 49.5098 54.4585 49.7509 54.8536 49.9232C55.2519 50.0969 55.6441 50.2385 56.0487 50.2857C57.8439 50.4951 59.5474 49.4422 60.163 47.7429C60.3018 47.36 60.3504 46.9459 60.3733 46.5119C60.3959 46.0814 60.3959 45.5423 60.3959 44.8798L60.396 44.7625C60.3961 44.2698 60.3963 43.8845 60.3264 43.5192C60.1465 42.5791 59.6267 41.7382 58.8664 41.1568C58.5709 40.9309 58.2262 40.7588 57.7855 40.5386L53.9499 38.6209C53.3573 38.3246 52.8751 38.0835 52.4799 37.9112C52.0816 37.7375 51.6894 37.5959 51.2848 37.5487Z" fill="#FBE2C6"/>
<defs>
<clipPath id="clip0_26_24">
<rect width="80" height="80" fill="white"/>
</clipPath>
</defs>
</svg>
